<?xml version="1.0" standalone="no"?> <!DOCTYPE svg PUBLIC "-//W3C//DTD SVG 1.0//EN" "http://www.w3.org/TR/2001/REC-SVG-20010904/DTD/svg10.dtd" > <svg xmlns="http://www.w3.org/2000/svg" width="100%" height="100%">
<defs >
<font id="Tahoma" horiz-adv-x="910" ><font-face
    font-family="Tahoma"
    units-per-em="2048"
    panose-1="2 11 6 4 3 5 4 4 2 4"
    ascent="2053"
    descent="-425"
    alphabetic="0" />
<glyph unicode=" " glyph-name="space" horiz-adv-x="640" />
<glyph unicode="!" glyph-name="exclam" horiz-adv-x="680" d="M452 1489L424 410H258L228 1489H452V1489ZM442 0H238V211H442V0V0Z" />
<glyph unicode="&quot;" glyph-name="quotedbl" horiz-adv-x="822" d="M708 1556L665 977H533L490 1556H708V1556ZM332 1556L289 977H157L114 1556H332V1556Z" />
<glyph unicode="#" glyph-name="numbersign" horiz-adv-x="1490" d="M1348 932H1055L963 556H1231V421H928L823 0H694L799 421H529L424 0H295L400 421H142V556H435L527 932H259V1067H562L667 1489H796L691 1067H961L1066 1489H1195L1090 1067H1348V932V932ZM929
934H655L561 554H835L929 934V934Z" />
<glyph unicode="$" glyph-name="dollar" horiz-adv-x="1118" d="M1026 381Q1026 234 913 129Q801 24 629 3V-359H515V-2Q461 -1 407 5T297 23Q185 48 106 87V289H121Q201 230 299 193Q398 156 514 145V577L453 592Q435 597 420 601T392 609Q241 650 177 732Q112
815 112 936Q112 1078 223 1183Q335 1289 513 1305V1577H627V1307Q716 1304 816 1281Q911 1259 975 1231V1033H960Q889 1082 806 1117Q721 1154 626 1161V731Q643 727 658 724T688 716Q702 712 714 709T738 704Q874 673 949 593Q1024 514 1024 380L1026 381ZM515
747V1161Q426 1154 364 1102Q303 1051 303 961Q303 872 348 824Q394 775 516 747H515ZM835 354Q835 448 787 493Q738 539 628 561V146Q730 158 783 208Q836 258 836 355L835 354Z" />
<glyph unicode="%" glyph-name="percent" horiz-adv-x="2000" d="M807 1075Q807 850 717 742Q627 634 456 634Q282 634 192 744Q102 854 102 1074Q102 1298 193 1407Q284 1516 455 1516Q629 1516 718 1406Q807 1296 807 1076V1075ZM693 -1H528L1308 1488H1473L693
-1ZM1897 411Q1897 186 1807 78Q1717 -30 1546 -30Q1372 -30 1282 80Q1192 190 1192 410Q1192 634 1283 743Q1374 852 1545 852Q1719 852 1808 742Q1897 632 1897 412V411ZM629 1074Q629 1226 593 1304Q557 1382 454 1382Q351 1382 315 1303Q279 1224 279 1072Q279
921 313 843Q347 764 454 764Q557 764 593 843Q629 923 629 1074ZM1719 411Q1719 563 1683 641Q1647 719 1544 719Q1441 719 1405 640Q1369 561 1369 409Q1369 258 1403 180Q1437 101 1544 101Q1647 101 1683 180Q1719 260 1719 411Z" />
<glyph unicode="&amp;" glyph-name="ampersand" horiz-adv-x="1380" d="M1443 0H1187L983 213Q882 83 773 26Q665 -31 529 -31Q328 -31 195 91Q63 213 63 409Q63 495 87 562Q111 630 151 683Q191 737 241 775Q293 815 339 843Q239 910 189 986Q139 1062 139 1175Q139
1245 168 1306Q197 1367 243 1413Q292 1460 368 1490Q445 1520 536 1520Q702 1520 807 1433Q912 1346 912 1212Q912 1163 900 1110Q888 1058 855 1008Q822 959 768 915Q714 872 625 840L977 478Q984 520 988 564T994 657Q997 753 997 908H1192V812Q1192 716 1168
596Q1144 478 1088 368L1445 0H1443ZM897 303L437 774Q412 758 386 735Q362 714 331 669Q307 635 289 577Q271 520 271 457Q271 315 355 223Q439 131 583 131Q679 131 756 172Q833 213 896 301L897 303ZM532 915Q588 935 624 966Q661 998 680 1035Q698 1069 707
1109Q716 1148 716 1193Q716 1291 659 1343Q601 1396 527 1396Q438 1396 387 1336Q336 1276 336 1186Q336 1147 344 1117Q351 1090 376 1051Q396 1021 435 985Q474 949 531 914L532 915Z" />
<glyph unicode="&apos;" glyph-name="quotesingle" horiz-adv-x="432" d="M327 1556L284 977H148L105 1556H327V1556Z" />
<glyph unicode="(" glyph-name="parenleft" horiz-adv-x="784" d="M712 -411H483Q309 -204 210 27Q111 258 111 573Q111 881 210 1115Q309 1348 485 1556H714V1546Q673 1509 635 1467T559 1377Q522 1329 488 1274T422 1154Q392 1092 368 1025T324 883Q286 733
286 571Q286 401 322 258Q340 186 364 119T420 -12Q479 -133 557 -234Q634 -333 710 -402V-412L712 -411Z" />
<glyph unicode=")" glyph-name="parenright" horiz-adv-x="784" d="M679 569Q679 260 580 26Q481 -209 306 -415H77V-405Q154 -336 232 -235Q309 -136 368 -13Q431 118 466 260Q502 404 502 571Q502 738 465 883Q428 1029 366 1154Q305 1277 228 1377Q152 1476
75 1545V1555H304Q478 1349 577 1115Q676 883 676 572L679 569Z" />
<glyph unicode="*" glyph-name="asterisk" horiz-adv-x="1118" d="M1007 887L942 777L615 994L622 630H497L503 994L178 776L112 886L466 1093L112 1300L178 1410L504 1191L497 1556H622L614 1191L942 1409L1007 1299L653 1094L1007 887V887Z" />
<glyph unicode="+" glyph-name="plus" horiz-adv-x="1490" d="M1333 572H828V67H662V572H157V732H662V1237H828V732H1333V572V572Z" />
<glyph unicode="," glyph-name="comma" horiz-adv-x="620" d="M500 285L220 -370H74L250 285H500V285Z" />
<glyph unicode="-" glyph-name="hyphen" horiz-adv-x="744" d="M654 561H90V742H654V561V561Z" />
<glyph unicode="." glyph-name="period" horiz-adv-x="620" d="M429 0H190V285H429V0V0Z" />
<glyph unicode="/" glyph-name="slash" horiz-adv-x="783" d="M728 1556L145 -324H-24L556 1556H728V1556Z" />
<glyph unicode="0" glyph-name="zero" horiz-adv-x="1118" d="M1035 747Q1035 347 918 159Q801 -29 558 -29Q313 -29 197 162Q82 352 82 744Q82 1148 199 1334Q316 1520 559 1520Q805 1520 920 1327Q1035 1134 1035 745V747ZM780 294Q809 369 821 480Q833 593
833 747Q833 901 821 1013Q809 1126 779 1201Q749 1278 696 1317Q644 1356 559 1356Q476 1356 422 1317Q369 1279 337 1200Q306 1122 296 1008Q291 950 288 885T285 747Q285 591 294 486Q303 382 335 298Q364 221 418 179Q472 137 558 137Q641 137 695 176Q749
215 779 293L780 294Z" />
<glyph unicode="1" glyph-name="one" horiz-adv-x="1118" d="M953 -1H227V151H497V1149H227V1285Q379 1285 452 1329Q524 1373 533 1494H688V152H952V0L953 -1Z" />
<glyph unicode="2" glyph-name="two" horiz-adv-x="1118" d="M1032 0H113V209L300 389Q345 432 387 476T472 568Q642 756 703 868Q765 981 765 1101Q765 1161 745 1209Q726 1256 691 1287Q657 1317 610 1332Q564 1347 508 1347Q457 1347 401 1333Q346 1319 297
1300Q257 1284 216 1259Q196 1247 181 1237T153 1218H142V1430Q173 1446 216 1461T315 1491Q426 1521 525 1521Q734 1521 852 1410Q970 1299 970 1110Q970 1023 949 949Q928 875 892 812Q855 748 802 683Q750 619 691 557Q643 506 591 453T481 345L296 171H1028V0H1032Z"
/>
<glyph unicode="3" glyph-name="three" horiz-adv-x="1118" d="M516 1349Q460 1349 408 1336Q352 1322 302 1302Q254 1283 218 1260Q200 1249 184 1239T154 1218H142V1429Q206 1463 318 1492Q431 1521 530 1521Q631 1521 706 1500Q783 1478 843 1436Q909 1388
942 1320Q975 1253 975 1161Q975 1038 894 945Q814 853 700 827V813Q723 808 748 801T801 782Q854 760 901 716Q948 673 976 605Q1005 536 1005 440Q1005 340 970 255Q936 171 872 106Q808 39 716 4Q623 -31 507 -31Q395 -31 285 -4Q176 23 100 61V272H114Q176
226 283 184Q390 142 496 142Q556 142 619 162Q681 182 721 225Q761 268 782 321Q803 374 803 455Q803 536 779 588Q755 640 713 670Q671 700 614 712Q557 724 489 724H404V890H470Q606 890 689 954Q773 1019 773 1140Q773 1196 751 1236Q728 1277 694 1301Q657
1327 610 1337Q566 1347 511 1347L516 1349Z" />
<glyph unicode="4" glyph-name="four" horiz-adv-x="1118" d="M1067 512H890V0H698V512H40V722L706 1489H890V672H1067V512V512ZM698 672V1254L196 672H698V672Z" />
<glyph unicode="5" glyph-name="five" horiz-adv-x="1118" d="M1009 478Q1009 371 974 278Q940 187 878 119Q814 51 722 12Q629 -27 513 -27Q407 -27 303 -3Q201 21 123 59V270H137Q161 252 203 232Q225 221 249 211T299 191Q358 170 407 158Q457 146 518 146Q578
146 635 167Q693 188 733 236Q771 280 790 338Q810 398 810 476Q810 555 789 606Q768 656 727 690Q683 728 621 743Q558 758 481 758Q401 758 318 746Q276 740 244 734T186 723V1490H1003V1315H379V919Q415 923 450 925Q467 926 483 926T513 927Q629 927 706 908Q786
889 859 833Q933 777 972 693Q1011 609 1011 474L1009 478Z" />
<glyph unicode="6" glyph-name="six" horiz-adv-x="1118" d="M1048 487Q1048 373 1010 274Q973 177 908 112Q841 43 758 7Q676 -29 575 -29Q473 -29 392 5Q309 40 246 107Q170 188 126 323Q82 460 82 656Q82 852 122 1006Q163 1163 245 1278Q326 1391 454 1454Q582
1517 750 1517Q775 1517 798 1516T843 1512Q886 1508 919 1497V1306H910Q883 1321 832 1333Q781 1345 723 1345Q537 1345 423 1219Q309 1093 288 846Q359 896 434 923Q509 950 598 950Q685 950 751 932Q817 914 888 861Q971 800 1011 705Q1051 612 1051 483L1048
487ZM846 481Q846 573 822 634Q798 696 744 739Q705 770 655 781Q608 791 553 791Q483 791 417 770Q350 749 287 709Q286 698 286 688T284 666Q283 655 283 643T283 614Q283 460 313 365Q343 271 388 221Q431 175 477 155Q521 136 575 136Q695 136 770 222Q845
308 845 479L846 481Z" />
<glyph unicode="7" glyph-name="seven" horiz-adv-x="1118" d="M1044 1266L400 0H187L869 1314H99V1489H1044V1266V1266Z" />
<glyph unicode="8" glyph-name="eight" horiz-adv-x="1118" d="M809 1140Q809 1241 742 1308Q675 1375 556 1375Q446 1375 377 1315Q308 1255 308 1153Q308 1079 344 1028Q380 977 451 936Q467 928 490 916T546 889Q611 858 662 842Q748 909 780 980Q811 1049
811 1142L809 1140ZM838 395Q838 487 802 541Q765 596 663 651Q627 671 572 693L444 745Q361 689 318 609Q274 527 274 425Q274 291 355 202Q436 114 559 114Q685 114 761 189Q837 264 837 394L838 395ZM556 -36Q446 -36 354 -3Q263 30 198 92Q135 152 102 235Q69
318 69 409Q69 529 134 632Q198 734 322 794V800Q213 865 160 941Q107 1018 107 1131Q107 1299 234 1411Q361 1523 556 1523Q758 1523 882 1416Q1005 1310 1005 1143Q1005 1043 946 945Q888 848 778 792V786Q909 724 976 638Q1043 552 1043 414Q1043 223 905 94Q767
-35 558 -35L556 -36Z" />
<glyph unicode="9" glyph-name="nine" horiz-adv-x="1118" d="M832 879Q832 1032 804 1126Q776 1221 726 1274Q683 1322 637 1340Q592 1358 538 1358Q415 1358 342 1270Q269 1182 269 1015Q269 921 293 859Q317 798 371 754Q408 723 457 712Q507 701 560 701Q623
701 698 724Q772 747 827 784Q829 799 830 823Q831 835 831 848T832 877V879ZM64 1007Q64 1121 102 1217Q140 1312 204 1381Q265 1447 355 1484Q444 1521 537 1521Q639 1521 724 1486Q807 1452 869 1387Q946 1304 988 1171Q1030 1038 1030 835Q1030 650 988 485Q946
319 865 210Q780 95 659 33Q540 -28 362 -28Q342 -28 321 -27T277 -23Q234 -19 193 -6V185H203Q229 172 281 158Q332 145 389 145Q586 145 698 274Q810 402 825 643Q785 616 747 597T673 564Q602 539 515 539Q433 539 365 557Q296 575 228 627Q149 688 108 782Q67
876 67 1007H64Z" />
<glyph unicode=":" glyph-name="colon" horiz-adv-x="724" d="M482 832H243V1117H482V832V832ZM482 0H243V285H482V0V0Z" />
<glyph unicode=";" glyph-name="semicolon" horiz-adv-x="724" d="M482 832H243V1117H482V832V832ZM548 285L268 -370H122L298 285H548V285Z" />
<glyph unicode="&lt;" glyph-name="less" horiz-adv-x="1490" d="M1275 79L201 592V712L1275 1225V1047L442 652L1275 257V79V79Z" />
<glyph unicode="=" glyph-name="equal" horiz-adv-x="1490" d="M1298 782H192V942H1298V782V782ZM1298 362H192V522H1298V362V362Z" />
<glyph unicode="&gt;" glyph-name="greater" horiz-adv-x="1490" d="M1289 592L215 79V257L1048 652L215 1047V1225L1289 712V592V592Z" />
<glyph unicode="?" glyph-name="question" horiz-adv-x="970" d="M913 1142Q913 1045 880 968Q847 892 793 833Q739 775 670 725Q635 700 599 676T525 629V401H346V706L477 788Q550 835 594 877Q648 928 678 988Q708 1048 708 1125Q708 1237 637 1293Q566 1349
452 1349Q352 1349 263 1316Q175 1283 119 1247H108V1451Q176 1478 277 1499Q379 1520 470 1520Q676 1520 794 1415Q912 1310 912 1139L913 1142ZM339 3V214H543V3H339Z" />
<glyph unicode="@" glyph-name="at" horiz-adv-x="1862" d="M1739 661Q1739 523 1701 392Q1664 263 1593 155H1172L1147 271Q1078 213 1023 181Q966 148 869 148Q715 148 617 271Q519 395 519 630Q519 866 639 996Q759 1127 914 1127Q986 1127 1038 1109Q1091
1091 1143 1061V1109H1302V267H1529Q1567 338 1583 450Q1591 507 1595 557T1600 654Q1600 981 1433 1181Q1266 1381 954 1381Q658 1381 466 1165Q274 949 274 642Q274 311 461 108Q649 -96 950 -96Q991 -96 1033 -93T1121 -85Q1209 -75 1291 -50V-192Q1207 -212
1120 -219Q1076 -223 1034 -225T949 -227Q596 -227 363 16Q131 258 131 646Q131 1013 371 1265Q611 1517 955 1517Q1323 1517 1531 1280Q1739 1044 1739 663V661ZM1140 407V925Q1083 955 1038 966Q992 978 940 978Q827 978 758 894Q689 810 689 633Q689 472 741
387Q793 302 907 302Q967 302 1028 331Q1088 360 1142 406L1140 407Z" />
<glyph unicode="A" glyph-name="A" horiz-adv-x="1228" d="M-10 0L492 1489H736L1238 0H1029L894 416H325L190 0H-10V0ZM839 585L609 1287L380 585H839V585Z" />
<glyph unicode="B" glyph-name="B" horiz-adv-x="1207" d="M1159 459Q1159 349 1117 263Q1075 178 1004 122Q920 56 824 29Q728 2 576 2H149V1491H544Q624 1491 683 1488T783 1480Q861 1470 936 1430Q1015 1387 1053 1317Q1090 1249 1090 1153Q1090 1048 1034
965Q979 883 881 836V828Q1015 792 1088 696Q1161 601 1161 457L1159 459ZM883 1130Q883 1184 865 1223Q847 1263 807 1285Q759 1312 700 1318Q642 1324 538 1324H348V888H573Q667 888 710 897Q754 906 800 936Q844 964 864 1011Q883 1056 883 1127V1130ZM954 453Q954
537 930 591Q906 646 833 683Q787 709 731 716Q703 720 664 721T573 723H348V173H509Q639 173 714 185Q789 197 846 236Q901 275 927 325Q953 375 953 454L954 453Z" />
<glyph unicode="C" glyph-name="C" horiz-adv-x="1230" d="M729 -31Q582 -31 460 18Q336 68 248 165Q160 263 110 408Q61 552 61 741Q61 929 109 1068Q157 1208 248 1311Q337 1412 458 1464Q581 1517 731 1517Q769 1517 804 1514T872 1506Q939 1495 994 1479Q1018
1471 1042 1462T1093 1441Q1119 1430 1143 1418T1193 1391V1152H1177Q1164 1164 1148 1178T1111 1210Q1072 1243 1012 1277Q954 1309 888 1328Q819 1348 732 1348Q638 1348 552 1309Q466 1270 402 1194Q338 1117 304 1002Q269 885 269 743Q269 589 306 479Q343
369 408 292Q469 219 554 181Q639 143 732 143Q818 143 891 164Q962 184 1021 217Q1049 233 1073 248T1117 281Q1137 298 1153 312T1180 337H1195V101L1102 57Q1080 46 1054 36T997 16Q965 5 935 -3T877 -16Q819 -27 733 -27L729 -31Z" />
<glyph unicode="D" glyph-name="D" horiz-adv-x="1389" d="M1326 742Q1326 538 1243 374Q1161 211 1021 119Q908 48 791 24Q674 0 493 0H150V1489H489Q697 1489 819 1457Q939 1426 1023 1370Q1166 1276 1246 1118Q1325 961 1325 743L1326 742ZM1119 744Q1119 917
1062 1038Q1005 1160 893 1227Q813 1275 724 1296Q634 1317 500 1317H349V168H500Q632 168 731 189Q829 210 912 267Q1016 338 1068 454Q1120 570 1120 745L1119 744Z" />
<glyph unicode="E" glyph-name="E" horiz-adv-x="1149" d="M151 0V1489H1082V1313H349V905H1032V729H349V176H1082V0H151V0Z" />
<glyph unicode="F" glyph-name="F" horiz-adv-x="1068" d="M1042 1313H349V893H1013V717H349V0H151V1489H1042V1313V1313Z" />
<glyph unicode="G" glyph-name="G" horiz-adv-x="1367" d="M771 -29Q614 -29 483 19Q353 67 258 165Q164 264 114 410Q64 557 64 746Q64 927 115 1069Q166 1212 260 1312Q352 1410 485 1462Q620 1515 776 1515Q814 1515 849 1512T920 1504Q989 1494 1052 1474Q1102
1459 1163 1432Q1194 1418 1218 1407T1262 1386V1147H1245Q1226 1164 1207 1179T1168 1210Q1131 1239 1057 1274Q995 1305 919 1324Q839 1344 751 1344Q536 1344 404 1182Q272 1020 272 751Q272 603 307 489Q341 378 408 299Q472 223 563 182Q654 141 766 141Q851
141 933 153Q1016 165 1073 189V574H729V748H1269V98Q1250 90 1225 80T1168 56Q1136 43 1107 33T1049 15Q976 -8 917 -18Q856 -29 774 -29H771Z" />
<glyph unicode="H" glyph-name="H" horiz-adv-x="1383" d="M1232 0H1034V729H349V0H151V1489H349V905H1034V1489H1232V0V0Z" />
<glyph unicode="I" glyph-name="I" horiz-adv-x="764" d="M671 0H93V152H283V1337H93V1489H671V1337H481V152H671V0V0Z" />
<glyph unicode="J" glyph-name="J" horiz-adv-x="853" d="M715 384Q715 188 595 81Q476 -25 274 -25Q226 -25 145 -16Q64 -7 10 5V194H21Q41 187 66 180T122 164Q184 147 245 147Q337 147 391 168Q446 189 471 228Q499 269 506 327Q510 356 512 390T514 462V1331H199V1489H712V387L715
384Z" />
<glyph unicode="K" glyph-name="K" horiz-adv-x="1204" d="M1236 0H979L436 693L349 595V0H151V1489H349V804L959 1489H1200L584 824L1236 0V0Z" />
<glyph unicode="L" glyph-name="L" horiz-adv-x="1019" d="M1014 0H151V1489H349V176H1014V0V0Z" />
<glyph unicode="M" glyph-name="M" horiz-adv-x="1578" d="M1427 0H1229V1283L841 410H721L336 1283V0H151V1489H421L793 660L1152 1489H1427V0V0Z" />
<glyph unicode="N" glyph-name="N" horiz-adv-x="1367" d="M1216 0H994L336 1284V0H151V1489H432L1031 310V1489H1216V0V0Z" />
<glyph unicode="O" glyph-name="O" horiz-adv-x="1449" d="M1206 1319Q1292 1222 1338 1076Q1385 929 1385 745Q1385 562 1339 418Q1292 271 1206 173Q1115 70 993 20Q870 -30 726 -30Q575 -30 453 21Q333 71 245 173Q159 272 113 417Q67 561 67 745Q67 931 114
1075Q160 1217 246 1319Q332 1418 453 1469Q575 1520 725 1520Q875 1520 998 1467Q1120 1414 1204 1318L1206 1319ZM1180 748Q1180 894 1148 1010Q1117 1124 1058 1199Q999 1276 915 1315Q831 1354 727 1354Q620 1354 538 1316Q456 1278 395 1199Q337 1123 305
1007Q273 890 273 746Q273 453 396 297Q519 141 726 141Q933 141 1056 297Q1179 453 1179 745L1180 748Z" />
<glyph unicode="P" glyph-name="P" horiz-adv-x="1129" d="M1092 1042Q1092 946 1057 858Q1023 772 961 710Q885 634 781 595Q678 556 518 556H350V1H152V1490H526Q660 1490 751 1468Q845 1445 915 1396Q998 1339 1044 1252Q1091 1164 1091 1040L1092 1042ZM889
1037Q889 1114 862 1171Q835 1228 781 1264Q735 1295 671 1309Q610 1322 515 1322H351V727H486Q605 727 680 747Q754 767 803 816Q846 861 866 914Q886 968 886 1037H889Z" />
<glyph unicode="Q" glyph-name="Q" horiz-adv-x="1449" d="M1389 -360Q1335 -374 1275 -381Q1245 -385 1215 -386T1156 -388Q988 -388 884 -294Q779 -200 769 -26H744H723Q572 -26 450 25Q329 76 243 175Q157 274 111 419Q65 563 65 747Q65 933 112 1077Q158 1219
244 1321Q330 1420 451 1471Q573 1522 723 1522Q873 1522 996 1469Q1118 1416 1202 1320Q1288 1223 1334 1077Q1381 930 1381 746Q1381 457 1268 269Q1156 82 959 14Q963 -40 979 -87Q994 -132 1017 -158Q1043 -189 1083 -204Q1122 -219 1189 -219Q1229 -219 1283
-207Q1335 -196 1361 -184H1388V-364L1389 -360ZM1179 750Q1179 896 1147 1012Q1116 1126 1057 1201Q998 1278 914 1317Q830 1356 726 1356Q619 1356 537 1318Q455 1280 394 1201Q336 1125 304 1009Q272 892 272 748Q272 455 395 299Q518 143 725 143Q932 143 1055
299Q1178 455 1178 748L1179 750Z" />
<glyph unicode="R" glyph-name="R" horiz-adv-x="1271" d="M1303 -2H1046L574 590H348V-2H150V1487H534Q598 1487 651 1484T749 1473Q835 1460 914 1408Q992 1359 1037 1279Q1082 1200 1082 1083Q1082 920 999 810Q917 701 774 648L1304 0L1303 -2ZM873 1066Q873
1130 850 1182Q827 1233 779 1265Q738 1293 681 1305Q626 1317 543 1317H347V755H521Q607 755 674 770Q741 785 790 832Q833 874 854 932Q875 991 875 1068L873 1066Z" />
<glyph unicode="S" glyph-name="S" horiz-adv-x="1141" d="M570 -30Q408 -30 294 3Q237 20 184 40T80 86V334H94Q192 242 316 191Q441 140 556 140Q720 140 804 209Q888 278 888 390Q888 478 844 534Q800 590 704 617Q635 637 578 650Q549 657 514 666T435 686Q359
706 297 737Q236 769 189 818Q143 867 117 934Q91 1001 91 1087Q91 1268 232 1391Q373 1514 592 1514Q719 1514 828 1489Q940 1463 1034 1417V1180H1019Q948 1245 837 1293Q726 1341 604 1341Q467 1341 381 1276Q296 1212 296 1106Q296 1012 346 956Q396 901 490
875Q522 867 560 858T644 837Q733 816 795 798Q950 752 1020 657Q1091 562 1091 423Q1091 337 1055 251Q1019 165 955 107Q883 43 793 8Q702 -27 566 -27L570 -30Z" />
<glyph unicode="T" glyph-name="T" horiz-adv-x="1196" d="M499 0V1313H-1V1489H1197V1313H697V0H499V0Z" />
<glyph unicode="U" glyph-name="U" horiz-adv-x="1343" d="M668 -30Q539 -30 440 5Q342 40 273 107Q194 186 163 293Q131 403 131 560V1489H329V560Q329 454 342 386Q356 316 393 260Q433 200 502 169Q570 138 670 138Q764 138 835 169Q907 200 947 260Q985 317
998 386Q1005 421 1008 462T1012 555V1489H1210V560Q1210 407 1178 294Q1146 182 1067 106Q997 38 902 3Q809 -31 671 -31L668 -30Z" />
<glyph unicode="V" glyph-name="V" horiz-adv-x="1222" d="M1230 1489L718 0H504L-8 1489H204L616 253L1028 1489H1230V1489Z" />
<glyph unicode="W" glyph-name="W" horiz-adv-x="1847" d="M1821 1489L1447 0H1224L921 1236L625 0H407L26 1489H229L529 251L827 1489H1028L1329 239L1627 1489H1821V1489Z" />
<glyph unicode="X" glyph-name="X" horiz-adv-x="1189" d="M1181 0H954L591 596L222 0H8L481 745L22 1489H248L604 904L965 1489H1180L714 755L1181 0V0Z" />
<glyph unicode="Y" glyph-name="Y" horiz-adv-x="1180" d="M1193 1489L690 659V0H492V638L-11 1489H209L593 832L983 1489H1193V1489Z" />
<glyph unicode="Z" glyph-name="Z" horiz-adv-x="1145" d="M1100 0H60V184L857 1313H96V1489H1080V1310L274 176H1100V0V0Z" />
<glyph unicode="[" glyph-name="bracketleft" horiz-adv-x="784" d="M686 -392H166V1556H686V1413H341V-249H686V-392V-392Z" />
<glyph unicode="\" glyph-name="backslash" horiz-adv-x="783" d="M804 -324H635L52 1556H224L804 -324V-324Z" />
<glyph unicode="]" glyph-name="bracketright" horiz-adv-x="784" d="M618 -392H98V-249H443V1413H98V1556H618V-392V-392Z" />
<glyph unicode="^" glyph-name="asciicircum" horiz-adv-x="1490" d="M1357 684H1159L744 1309L330 682H133L682 1489H808L1357 684V684Z" />
<glyph unicode="_" glyph-name="underscore" horiz-adv-x="1118" d="M1134 -300H-16V-170H1134V-300V-300Z" />
<glyph unicode="`" glyph-name="grave" horiz-adv-x="1118" d="M670 1302H521L248 1676H491L670 1302V1302Z" />
<glyph unicode="a" glyph-name="a" horiz-adv-x="1075" d="M760 276V586Q726 583 684 579T590 569Q488 559 425 539Q351 517 301 468Q252 420 252 335Q252 240 306 190Q359 141 464 141Q553 141 625 180Q696 218 760 275V276ZM759 121L697 73Q658 43 622 25Q573
-1 526 -14Q478 -28 395 -28Q327 -28 264 -2Q203 24 156 70Q111 117 84 184Q57 252 57 327Q57 444 106 524Q156 605 262 653Q357 697 484 713Q612 730 760 737V773Q760 838 740 880Q721 920 684 943Q648 966 596 973Q570 977 543 979T488 981Q426 981 335 961Q247
942 158 904H147V1095Q200 1110 297 1128Q395 1146 489 1146Q605 1146 684 1128Q762 1110 826 1063Q887 1017 917 943Q947 870 947 765V1H760V120L759 121Z" />
<glyph unicode="b" glyph-name="b" horiz-adv-x="1132" d="M879 563Q879 763 818 866Q756 970 622 970Q545 970 467 934Q387 897 324 843V203Q359 186 390 174T450 153Q506 138 571 138Q715 138 797 240Q879 341 879 562V563ZM1075 579Q1075 304 942 138Q808 -29
609 -29Q519 -29 453 -6Q387 17 325 54L313 2H137V1558H325V1002Q394 1065 478 1108Q561 1150 666 1150Q854 1150 964 998Q1073 847 1073 578L1075 579Z" />
<glyph unicode="c" glyph-name="c" horiz-adv-x="945" d="M581 -25Q466 -25 370 11Q274 47 205 119Q135 192 98 301Q60 412 60 559Q60 707 99 813Q138 920 204 993Q271 1067 369 1106Q468 1145 581 1145Q671 1145 758 1119Q844 1094 911 1059V848H900Q881 865
849 887Q819 909 772 932Q731 952 680 967Q628 982 578 982Q433 982 344 871Q255 759 255 558Q255 361 341 249Q427 138 578 138Q668 138 752 176Q833 213 899 274H910V63L840 31Q797 13 764 4Q717 -9 678 -17Q638 -25 580 -25H581Z" />
<glyph unicode="d" glyph-name="d" horiz-adv-x="1132" d="M996 -1H808V113Q786 94 768 79T733 52Q700 27 658 8Q618 -12 574 -22Q552 -27 528 -30T474 -33Q384 -33 305 5Q227 43 173 116Q119 188 88 298Q58 406 58 547Q58 693 96 802Q134 911 201 990Q262 1063
349 1105Q436 1147 531 1147Q616 1147 677 1129Q740 1111 808 1072V1556H996V0V-1ZM809 272V916Q739 951 683 964Q630 977 563 977Q418 977 335 869Q253 762 253 555Q253 358 316 253Q379 148 518 148Q592 148 667 181Q742 214 808 271L809 272Z" />
<glyph unicode="e" glyph-name="e" horiz-adv-x="1078" d="M623 -25Q356 -25 209 125Q62 275 62 553Q62 825 205 988Q348 1150 579 1150Q683 1150 762 1120Q843 1089 902 1026Q963 960 994 869Q1026 775 1026 642V540H252Q252 346 350 242Q447 139 620 139Q680
139 742 153Q802 167 850 189Q900 211 936 233Q972 255 993 273H1004V68L922 35Q871 15 834 5Q806 -3 782 -8T734 -18Q711 -22 683 -24T621 -26L623 -25ZM844 685Q843 762 826 817Q809 873 780 910Q748 951 696 974Q646 996 568 996Q494 996 440 973Q388 951 344
907Q303 865 280 809Q258 757 252 684H843L844 685Z" />
<glyph unicode="f" glyph-name="f" horiz-adv-x="652" d="M725 1377H715Q690 1386 643 1395Q597 1404 559 1404Q440 1404 389 1350Q338 1296 338 1156V1118H649V962H344V1H156V962H29V1118H156V1155Q156 1358 253 1462Q351 1567 532 1567Q585 1567 634 1561Q659
1558 681 1555T724 1548V1376L725 1377Z" />
<glyph unicode="g" glyph-name="g" horiz-adv-x="1132" d="M807 302V915Q738 949 677 964Q617 979 558 979Q416 979 333 874Q251 770 251 573Q251 388 314 290Q377 193 517 193Q589 193 668 222Q747 251 808 303L807 302ZM175 -179Q195 -187 232 -200Q251 -207
272 -213T316 -226Q369 -240 412 -247Q458 -255 508 -255Q594 -255 655 -232Q716 -209 750 -169Q781 -129 795 -74Q808 -22 808 49V147Q730 80 658 49Q583 17 475 17Q284 17 172 159Q59 302 59 567Q59 706 98 814Q137 922 203 997Q266 1069 352 1108Q438 1147 529
1147Q616 1147 679 1126Q741 1105 807 1067L818 1115H995V125Q995 -159 871 -292Q747 -425 492 -425Q450 -425 409 -422T324 -412Q239 -399 165 -376V-180H175V-179Z" />
<glyph unicode="h" glyph-name="h" horiz-adv-x="1142" d="M1013 -1H825V635Q825 673 823 709T817 778Q810 843 788 885Q766 927 725 948Q685 969 614 969Q545 969 469 931Q394 894 323 833V-1H135V1555H323V992Q406 1066 489 1107Q570 1147 663 1147Q828 1147
921 1039Q1014 931 1014 725V0L1013 -1Z" />
<glyph unicode="i" glyph-name="i" horiz-adv-x="468" d="M328 0H140V1117H328V0V0ZM341 1304H127V1499H341V1304V1304Z" />
<glyph unicode="j" glyph-name="j" horiz-adv-x="577" d="M440 -33Q440 -224 338 -324Q237 -424 56 -424Q25 -424 -14 -421Q-54 -418 -91 -412V-244H-80Q-69 -246 -57 -248T-31 -253Q-17 -255 -5 -256T20 -258Q95 -258 143 -240Q191 -222 215 -181Q238 -145 245
-90Q249 -62 251 -29T253 45V961H51V1117H441V-32L440 -33ZM227 1303V1498H441V1303H227Z" />
<glyph unicode="k" glyph-name="k" horiz-adv-x="1020" d="M1062 0H815L398 539L324 467V0H136V1556H324V645L766 1117H1000L541 650L1062 0V0Z" />
<glyph unicode="l" glyph-name="l" horiz-adv-x="468" d="M328 0H140V1556H328V0V0Z" />
<glyph unicode="m" glyph-name="m" horiz-adv-x="1720" d="M1406 -2V644Q1406 721 1400 787Q1394 854 1375 890Q1356 931 1318 950Q1281 969 1218 969Q1159 969 1093 933Q1025 896 956 830L959 789Q960 777 960 763T961 733V-2H773V644Q773 721 767 787Q761 854
742 890Q723 931 685 950Q648 969 585 969Q524 969 456 931Q390 894 326 835V1H138V1118H326V994Q399 1067 472 1108Q545 1149 631 1149Q731 1149 807 1104Q884 1059 924 956Q1010 1051 1090 1100Q1170 1149 1266 1149Q1337 1149 1397 1126Q1456 1104 1499 1054Q1544
1003 1568 927Q1592 851 1592 735V0H1404L1406 -2Z" />
<glyph unicode="n" glyph-name="n" horiz-adv-x="1142" d="M1013 -1H825V635Q825 673 823 709T817 778Q810 843 788 885Q766 927 725 948Q685 969 614 969Q545 969 469 931Q394 894 323 833V-1H135V1116H323V992Q406 1066 489 1107Q570 1147 663 1147Q828 1147
921 1039Q1014 931 1014 725V0L1013 -1Z" />
<glyph unicode="o" glyph-name="o" horiz-adv-x="1112" d="M1054 556Q1054 273 918 121Q782 -32 555 -32Q323 -32 189 127Q55 287 55 558Q55 839 193 993Q331 1148 556 1148Q782 1148 919 993Q1055 839 1055 558L1054 556ZM859 554Q859 773 780 877Q701 982 555
982Q408 982 328 877Q248 771 248 554Q248 345 328 236Q408 128 555 128Q700 128 780 235Q860 342 860 556L859 554Z" />
<glyph unicode="p" glyph-name="p" horiz-adv-x="1132" d="M1074 587Q1074 309 940 143Q807 -22 602 -22Q518 -22 455 -3Q391 17 323 57V-411H135V1118H323V1001Q394 1064 479 1106Q565 1148 665 1148Q857 1148 965 996Q1073 845 1073 588L1074 587ZM882 569Q882
761 821 865Q760 970 623 970Q543 970 468 934Q430 916 395 893T326 842V209Q397 174 452 160Q503 147 572 147Q718 147 799 254Q880 361 880 566L882 569Z" />
<glyph unicode="q" glyph-name="q" horiz-adv-x="1132" d="M998 -414H810V120Q726 44 650 10Q571 -25 477 -25Q287 -25 174 128Q61 282 61 553Q61 697 100 808Q139 918 204 994Q266 1068 351 1108Q435 1148 530 1148Q614 1148 679 1128Q740 1109 808 1069L820
1117H996V-412L998 -414ZM809 278V914Q739 949 683 962Q625 976 563 976Q415 976 335 869Q255 762 255 561Q255 363 319 259Q384 154 518 154Q598 154 672 188Q747 223 810 278H809Z" />
<glyph unicode="r" glyph-name="r" horiz-adv-x="738" d="M727 914H717Q694 921 672 922Q660 923 646 923T615 924Q539 924 464 891Q391 859 322 793V0H134V1117H322V951Q426 1043 502 1080Q580 1118 651 1118Q665 1118 676 1118T695 1116Q703 1115 711 1114T728
1111V915L727 914Z" />
<glyph unicode="s" glyph-name="s" horiz-adv-x="914" d="M440 -30Q328 -30 230 0Q181 15 141 31T68 64V275H78Q102 256 135 233Q168 211 222 185Q270 163 327 146Q386 129 446 129Q489 129 542 140Q592 150 618 167Q653 190 668 215Q683 241 683 293Q683 361
647 395Q611 430 518 452Q480 462 424 473Q395 479 368 485T316 499Q188 537 130 614Q72 691 72 802Q72 954 186 1048Q301 1143 489 1143Q536 1143 582 1137T676 1120Q771 1098 835 1063V862H825Q753 919 664 952Q576 985 485 985Q393 985 328 946Q264 907 264
828Q264 758 302 723Q339 689 424 666Q466 656 517 645Q568 635 625 621Q749 590 812 518Q875 446 875 322Q875 251 846 185Q818 121 762 74Q702 25 627 -1Q551 -27 438 -27L440 -30Z" />
<glyph unicode="t" glyph-name="t" horiz-adv-x="685" d="M474 -18Q320 -18 234 69Q148 157 148 345V964H21V1120H148V1441H336V1120H682V964H336V433Q336 348 339 301Q342 256 362 214Q379 179 416 161Q454 143 518 143Q563 143 608 157Q630 164 645 169T671
180H682V11Q630 -4 575 -13Q521 -22 474 -22V-18Z" />
<glyph unicode="u" glyph-name="u" horiz-adv-x="1142" d="M1010 -2H822V122Q734 44 657 6Q579 -33 483 -33Q410 -33 345 -9Q279 16 232 67Q184 120 157 199Q130 279 130 391V1116H318V480Q318 392 324 333Q330 276 353 231Q375 188 415 168Q455 148 528 148Q597
148 675 187Q754 227 818 283V1117H1006V0L1010 -2Z" />
<glyph unicode="v" glyph-name="v" horiz-adv-x="1020" d="M1014 1117L593 0H424L6 1117H209L515 255L818 1117H1014V1117Z" />
<glyph unicode="w" glyph-name="w" horiz-adv-x="1520" d="M1490 1117L1207 0H1033L760 861L489 0H316L30 1117H226L423 252L688 1117H843L1115 252L1301 1117H1490V1117Z" />
<glyph unicode="x" glyph-name="x" horiz-adv-x="1014" d="M1004 0H773L502 422L223 0H10L398 554L14 1117H245L514 699L790 1117H1004L618 567L1004 0V0Z" />
<glyph unicode="y" glyph-name="y" horiz-adv-x="1020" d="M1014 1117L413 -412H212L412 54L6 1117H209L514 290L818 1117H1014V1117Z" />
<glyph unicode="z" glyph-name="z" d="M870 0H49V139L633 962H73V1117H859V983L272 157H870V0V0Z" />
<glyph unicode="{" glyph-name="braceleft" horiz-adv-x="984" d="M886 -398H770Q591 -398 489 -299Q387 -200 387 -10V139Q387 210 374 278Q361 349 323 398Q285 448 226 473Q165 499 78 499H57V655H78Q165 655 226 681Q285 706 323 756Q361 806 374 876Q387
944 387 1015V1164Q387 1354 489 1453Q591 1552 770 1552H886V1414H806Q748 1414 704 1402Q661 1390 629 1361Q597 1331 582 1278Q567 1226 567 1149V974Q567 890 548 836Q529 781 491 731Q458 687 405 651Q351 614 295 592V568Q351 546 405 509Q457 474 492 429Q530
380 549 324Q568 270 568 186V11Q568 -66 583 -118Q598 -171 630 -201Q661 -230 704 -242Q748 -254 806 -254H886V-392V-398Z" />
<glyph unicode="|" glyph-name="bar" horiz-adv-x="783" d="M475 -392H308V1556H475V-392V-392Z" />
<glyph unicode="}" glyph-name="braceright" horiz-adv-x="984" d="M924 510H903Q816 510 755 484Q696 459 658 409Q621 360 607 289Q594 221 594 150V1Q594 -189 492 -288Q390 -387 211 -387H95V-249H175Q234 -249 277 -237Q320 -225 352 -196Q384 -166 399 -113Q414
-61 414 16V191Q414 275 433 329Q453 385 490 434Q523 478 576 514Q630 551 686 573V597Q630 619 576 656Q523 692 490 736Q453 786 433 841Q414 895 414 979V1154Q414 1231 399 1283Q384 1336 352 1366Q320 1395 277 1407Q234 1419 175 1419H95V1557H211Q390 1557
492 1458Q594 1359 594 1169V1020Q594 949 607 881Q621 811 658 761Q696 711 755 686Q816 660 903 660H924V504V510Z" />
<glyph unicode="~" glyph-name="asciitilde" horiz-adv-x="1490" d="M1355 931Q1353 828 1334 734Q1314 639 1274 564Q1234 491 1172 444Q1111 398 1013 398Q956 398 911 413Q866 428 831 454Q797 480 765 514Q749 531 735 547T708 579L655 646Q630 681 604 706Q578
734 548 751Q519 768 482 768Q432 768 399 741Q366 714 344 662Q323 613 314 542Q305 472 302 395H134Q136 499 155 593Q174 687 214 760Q254 836 320 881Q386 926 476 926Q537 926 581 910Q627 893 661 868Q697 841 726 811Q741 795 755 779T784 745L837 679Q852
659 864 644T888 618Q915 590 947 572Q976 556 1010 556Q1060 556 1094 584Q1129 613 1148 660Q1168 711 1177 777Q1182 811 1184 848T1188 927H1356L1355 931Z" />
</font>
</defs>
</svg>
